<svg width="40" height="40" viewBox="0 0 40 40" fill="none" xmlns="http://www.w3.org/2000/svg">
<rect width="40" height="40" rx="20" fill="#EEEEEE"/>
<path d="M25.0394 29.1976C23.9507 30.253 22.7619 30.0864 21.6176 29.5864C20.4067 29.0754 19.2957 29.0532 18.0181 29.5864C16.4183 30.2752 15.574 30.0752 14.6185 29.1976C9.19698 23.6094 9.99688 15.0994 16.1517 14.7883C17.6515 14.8661 18.6958 15.6104 19.5734 15.6771C20.8844 15.4104 22.1398 14.6439 23.5396 14.7438C25.2172 14.8772 26.4837 15.5437 27.3169 16.7436C23.8507 18.8211 24.6728 23.3872 27.8502 24.6648C27.2169 26.3313 26.3948 27.9866 25.0283 29.2087L25.0394 29.1976ZM19.4624 14.7216C19.2957 12.2442 21.3066 10.2 23.6174 10C23.9396 12.8663 21.0177 14.9994 19.4624 14.7216Z" fill="black"/>
</svg>
