<svg width="20" height="20" viewBox="0 0 20 20" fill="none" xmlns="http://www.w3.org/2000/svg">
<path d="M1.66699 7.50033C1.66699 5.92866 1.66699 5.14366 2.15533 4.65533C2.64366 4.16699 3.42866 4.16699 5.00033 4.16699H15.0003C16.572 4.16699 17.357 4.16699 17.8453 4.65533C18.3337 5.14366 18.3337 5.92866 18.3337 7.50033C18.3337 7.89283 18.3337 8.08949 18.212 8.21199C18.0895 8.33366 17.892 8.33366 17.5003 8.33366H2.50033C2.10783 8.33366 1.91116 8.33366 1.78866 8.21199C1.66699 8.08949 1.66699 7.89199 1.66699 7.50033Z" fill="#0CC24C"/>
<path fill-rule="evenodd" clip-rule="evenodd" d="M1.66699 15C1.66699 16.5717 1.66699 17.3567 2.15533 17.845C2.64366 18.3333 3.42866 18.3333 5.00033 18.3333H15.0003C16.572 18.3333 17.357 18.3333 17.8453 17.845C18.3337 17.3567 18.3337 16.5717 18.3337 15V10.8333C18.3337 10.4408 18.3337 10.2442 18.212 10.1217C18.0895 10 17.892 10 17.5003 10H2.50033C2.10783 10 1.91116 10 1.78866 10.1217C1.66699 10.2442 1.66699 10.4417 1.66699 10.8333V15ZM5.83366 12.5C5.83366 12.1075 5.83366 11.9108 5.95533 11.7883C6.07783 11.6667 6.27533 11.6667 6.66699 11.6667H8.33366C8.72616 11.6667 8.92283 11.6667 9.04533 11.7883C9.16699 11.9108 9.16699 12.1075 9.16699 12.5C9.16699 12.8925 9.16699 13.0892 9.04533 13.2117C8.92283 13.3333 8.72533 13.3333 8.33366 13.3333H6.66699C6.27449 13.3333 6.07783 13.3333 5.95533 13.2117C5.83366 13.0892 5.83366 12.8917 5.83366 12.5ZM5.95533 15.1217C5.83366 15.2442 5.83366 15.4417 5.83366 15.8333C5.83366 16.225 5.83366 16.4225 5.95533 16.545C6.07783 16.6667 6.27533 16.6667 6.66699 16.6667H8.33366C8.72616 16.6667 8.92283 16.6667 9.04533 16.545C9.16699 16.4225 9.16699 16.225 9.16699 15.8333C9.16699 15.4417 9.16699 15.2442 9.04533 15.1217C8.92283 15 8.72533 15 8.33366 15H6.66699C6.27449 15 6.07783 15 5.95533 15.1217ZM10.8337 12.5C10.8337 12.1075 10.8337 11.9108 10.9553 11.7883C11.0778 11.6667 11.2753 11.6667 11.667 11.6667H13.3337C13.7262 11.6667 13.9228 11.6667 14.0453 11.7883C14.167 11.9108 14.167 12.1075 14.167 12.5C14.167 12.8925 14.167 13.0892 14.0453 13.2117C13.9228 13.3333 13.7253 13.3333 13.3337 13.3333H11.667C11.2745 13.3333 11.0778 13.3333 10.9553 13.2117C10.8337 13.0892 10.8337 12.8917 10.8337 12.5ZM10.9553 15.1217C10.8337 15.2442 10.8337 15.4417 10.8337 15.8333C10.8337 16.225 10.8337 16.4225 10.9553 16.545C11.0778 16.6667 11.2745 16.6667 11.667 16.6667H13.3337C13.7262 16.6667 13.9228 16.6667 14.0453 16.545C14.167 16.4225 14.167 16.225 14.167 15.8333C14.167 15.4417 14.167 15.2442 14.0453 15.1217C13.9228 15 13.7253 15 13.3337 15H11.667C11.2745 15 11.0778 15 10.9553 15.1217Z" fill="#0CC24C"/>
<path d="M5.83398 2.5V5M14.1673 2.5V5" stroke="#0CC24C" stroke-width="2" stroke-linecap="round"/>
</svg>
