<svg width="19" height="19" viewBox="0 0 19 19" fill="none" xmlns="http://www.w3.org/2000/svg">
<mask id="path-1-inside-1_132_3987" fill="white">
<path fill-rule="evenodd" clip-rule="evenodd" d="M16.8347 14.0548C17.55 12.8568 17.9609 11.4562 17.9609 9.95959C17.9609 5.54132 14.3792 1.95959 9.96094 1.95959C5.54266 1.95959 1.96094 5.54132 1.96094 9.95959C1.96094 14.3779 5.54266 17.9596 9.96094 17.9596C11.4605 17.9596 12.8638 17.547 14.0633 16.8291L17.85 17.8437L16.8347 14.0548Z"/>
</mask>
<path d="M16.8347 14.0548L15.9761 13.5421C15.8376 13.7742 15.7989 14.0525 15.8688 14.3136L16.8347 14.0548ZM14.0633 16.8291L14.3221 15.8632C14.0607 15.7931 13.782 15.832 13.5498 15.971L14.0633 16.8291ZM17.85 17.8437L17.5912 18.8097C17.9363 18.9021 18.3045 18.8035 18.5571 18.5508C18.8097 18.2982 18.9084 17.93 18.8159 17.5849L17.85 17.8437ZM16.9609 9.95959C16.9609 11.2707 16.6014 12.4949 15.9761 13.5421L17.6933 14.5674C18.4985 13.2188 18.9609 11.6417 18.9609 9.95959H16.9609ZM9.96094 2.95959C13.8269 2.95959 16.9609 6.0936 16.9609 9.95959H18.9609C18.9609 4.98903 14.9315 0.959595 9.96094 0.959595V2.95959ZM2.96094 9.95959C2.96094 6.0936 6.09494 2.95959 9.96094 2.95959V0.959595C4.99037 0.959595 0.960938 4.98903 0.960938 9.95959H2.96094ZM9.96094 16.9596C6.09494 16.9596 2.96094 13.8256 2.96094 9.95959H0.960938C0.960938 14.9302 4.99037 18.9596 9.96094 18.9596V16.9596ZM13.5498 15.971C12.5011 16.5986 11.2747 16.9596 9.96094 16.9596V18.9596C11.6464 18.9596 13.2264 18.4953 14.5768 17.6872L13.5498 15.971ZM13.8045 17.795L17.5912 18.8097L18.1088 16.8778L14.3221 15.8632L13.8045 17.795ZM18.8159 17.5849L17.8007 13.796L15.8688 14.3136L16.8841 18.1026L18.8159 17.5849Z" fill="#1E1E1E" mask="url(#path-1-inside-1_132_3987)"/>
</svg>
