<svg width="27" height="27" viewBox="0 0 27 27" fill="none" xmlns="http://www.w3.org/2000/svg">
<path d="M18.8388 8.24308C18.762 8.16614 18.6708 8.10511 18.5704 8.06346C18.47 8.02182 18.3624 8.00038 18.2537 8.00038C18.145 8.00038 18.0374 8.02182 17.937 8.06346C17.8366 8.10511 17.7454 8.16614 17.6686 8.24308L13.6104 12.293L9.55216 8.23478C9.47533 8.15795 9.38411 8.097 9.28372 8.05542C9.18333 8.01383 9.07574 7.99243 8.96708 7.99243C8.85842 7.99243 8.75082 8.01383 8.65043 8.05542C8.55005 8.097 8.45883 8.15795 8.382 8.23478C8.30516 8.31161 8.24421 8.40283 8.20263 8.50322C8.16105 8.60361 8.13965 8.7112 8.13965 8.81986C8.13965 8.92852 8.16105 9.03612 8.20263 9.13651C8.24421 9.23689 8.30516 9.32811 8.382 9.40494L12.4402 13.4632L8.382 17.5214C8.30516 17.5982 8.24421 17.6894 8.20263 17.7898C8.16105 17.8902 8.13965 17.9978 8.13965 18.1065C8.13965 18.2151 8.16105 18.3227 8.20263 18.4231C8.24421 18.5235 8.30516 18.6147 8.382 18.6916C8.45883 18.7684 8.55005 18.8293 8.65043 18.8709C8.75082 18.9125 8.85842 18.9339 8.96708 18.9339C9.07574 18.9339 9.18333 18.9125 9.28372 18.8709C9.38411 18.8293 9.47533 18.7684 9.55216 18.6916L13.6104 14.6333L17.6686 18.6916C17.7454 18.7684 17.8367 18.8293 17.9371 18.8709C18.0374 18.9125 18.145 18.9339 18.2537 18.9339C18.3624 18.9339 18.4699 18.9125 18.5703 18.8709C18.6707 18.8293 18.7619 18.7684 18.8388 18.6916C18.9156 18.6147 18.9766 18.5235 19.0181 18.4231C19.0597 18.3227 19.0811 18.2151 19.0811 18.1065C19.0811 17.9978 19.0597 17.8902 19.0181 17.7898C18.9766 17.6894 18.9156 17.5982 18.8388 17.5214L14.7805 13.4632L18.8388 9.40494C19.1541 9.08958 19.1541 8.55844 18.8388 8.24308Z" fill="#828387"/>
</svg>
