<svg width="25" height="24" viewBox="0 0 25 24" fill="none" xmlns="http://www.w3.org/2000/svg">
<path d="M8.64285 11.9999C9.14938 11.9999 9.65095 11.9002 10.1189 11.7063C10.5869 11.5125 11.0121 11.2284 11.3703 10.8702C11.7284 10.512 12.0125 10.0868 12.2064 9.61885C12.4002 9.15088 12.5 8.64931 12.5 8.14279C12.5 7.63626 12.4002 7.13469 12.2064 6.66672C12.0125 6.19875 11.7284 5.77354 11.3703 5.41538C11.0121 5.05721 10.5869 4.77309 10.1189 4.57925C9.65095 4.38541 9.14938 4.28564 8.64285 4.28564C7.61987 4.28564 6.63879 4.69202 5.91544 5.41538C5.19208 6.13873 4.78571 7.11981 4.78571 8.14279C4.78571 9.16577 5.19208 10.1468 5.91544 10.8702C6.63879 11.5936 7.61987 11.9999 8.64285 11.9999ZM15.1571 18.5305C15.8111 18.7319 16.6263 18.8571 17.6429 18.8571C22.7857 18.8571 22.7857 15.6428 22.7857 15.6428C22.7857 15.1313 22.5825 14.6408 22.2208 14.2791C21.8592 13.9174 21.3686 13.7142 20.8571 13.7142H15.152C15.6502 14.2325 15.9279 14.9239 15.9269 15.6428V16.1185L15.9243 16.1896C15.9062 16.4759 15.862 16.76 15.7923 17.0382C15.6597 17.5653 15.4457 18.0685 15.158 18.5296M20.6429 8.99993C20.6429 9.3939 20.5653 9.784 20.4145 10.148C20.2637 10.512 20.0427 10.8427 19.7642 11.1213C19.4856 11.3998 19.1549 11.6208 18.7909 11.7716C18.4269 11.9223 18.0368 11.9999 17.6429 11.9999C17.2489 11.9999 16.8588 11.9223 16.4948 11.7716C16.1308 11.6208 15.8001 11.3998 15.5215 11.1213C15.243 10.8427 15.022 10.512 14.8712 10.148C14.7204 9.784 14.6429 9.3939 14.6429 8.99993C14.6429 8.20428 14.9589 7.44122 15.5215 6.87861C16.0841 6.316 16.8472 5.99993 17.6429 5.99993C18.4385 5.99993 19.2016 6.316 19.7642 6.87861C20.3268 7.44122 20.6429 8.20428 20.6429 8.99993ZM2.21428 15.6428C2.21428 15.1313 2.41747 14.6408 2.77914 14.2791C3.14082 13.9174 3.63136 13.7142 4.14285 13.7142H13.1429C13.6543 13.7142 14.1449 13.9174 14.5066 14.2791C14.8682 14.6408 15.0714 15.1313 15.0714 15.6428V16.0714C15.0714 16.0714 15.0714 20.5714 8.64285 20.5714C2.21428 20.5714 2.21428 16.0714 2.21428 16.0714V15.6428Z" fill="#0CC24C"/>
</svg>
