<svg width="32" height="32" viewBox="0 0 32 32" fill="none" xmlns="http://www.w3.org/2000/svg">
<path d="M19.3531 24C19.7309 24 20.0478 23.872 20.3038 23.616C20.5598 23.36 20.6873 23.0435 20.6865 22.6666C20.6865 22.2889 20.5585 21.972 20.3025 21.716C20.0465 21.46 19.73 21.3324 19.3531 21.3333H5.99999C5.62221 21.3333 5.30532 21.4613 5.04932 21.7173C4.79332 21.9733 4.66577 22.2898 4.66666 22.6666C4.66666 23.0444 4.79466 23.3613 5.05066 23.6173C5.30666 23.8733 5.6231 24.0009 5.99999 24H19.3531ZM16.6667 17.3333C17.0444 17.3333 17.3613 17.2053 17.6173 16.9493C17.8733 16.6933 18.0009 16.3769 18 16C18 15.6222 17.872 15.3053 17.616 15.0493C17.36 14.7933 17.0435 14.6658 16.6667 14.6666H5.99999C5.62221 14.6666 5.30532 14.7946 5.04932 15.0506C4.79332 15.3066 4.66577 15.6231 4.66666 16C4.66666 16.3778 4.79466 16.6946 5.05066 16.9506C5.30666 17.2066 5.6231 17.3342 5.99999 17.3333H16.6667ZM19.3531 10.6508C19.7309 10.6508 20.0478 10.5228 20.3038 10.2668C20.5598 10.0108 20.6873 9.69436 20.6865 9.31747C20.6865 8.93969 20.5585 8.6228 20.3025 8.3668C20.0465 8.1108 19.73 7.98325 19.3531 7.98414L5.99999 7.99998C5.62221 7.99998 5.30532 8.12798 5.04932 8.38398C4.79332 8.63998 4.66577 8.95642 4.66666 9.33331C4.66666 9.71109 4.79466 10.028 5.05066 10.284C5.30666 10.54 5.6231 10.6675 5.99999 10.6666L19.3531 10.6508Z" fill="#181919"/>
<path d="M25.8 10.2509L21 15.0509C20.7333 15.3176 20.6 15.6287 20.6 15.9842C20.6 16.3398 20.7333 16.6509 21 16.9176L25.8 21.7176C26.0444 21.962 26.3555 22.0842 26.7333 22.0842C27.1111 22.0842 27.4222 21.962 27.6666 21.7176C27.9111 21.4731 28.0333 21.162 28.0333 20.7842C28.0333 20.4065 27.9111 20.0953 27.6666 19.8509L23.8 15.9842L27.6666 12.1176C27.9111 11.8731 28.0333 11.562 28.0333 11.1842C28.0333 10.8065 27.9111 10.4953 27.6666 10.2509C27.4222 10.0065 27.1111 9.88423 26.7333 9.88423C26.3555 9.88423 26.0444 10.0065 25.8 10.2509Z" fill="#181919"/>
</svg>
