<svg width="20" height="20" viewBox="0 0 20 20" fill="none" xmlns="http://www.w3.org/2000/svg">
<path d="M8.44141 7.49958V13.1187C8.4479 13.5296 8.61568 13.9215 8.90855 14.2098C9.20142 14.498 9.59589 14.6596 10.0068 14.6596C10.4178 14.6596 10.8123 14.498 11.1051 14.2098C11.398 13.9215 11.5658 13.5296 11.5723 13.1187L11.5773 5.75349C11.5816 5.40229 11.5161 5.05373 11.3847 4.72803C11.2532 4.40234 11.0584 4.10597 10.8116 3.85611C10.5647 3.60626 10.2708 3.40788 9.94667 3.27249C9.62259 3.1371 9.27486 3.06738 8.92363 3.06738C8.57241 3.06738 8.22468 3.1371 7.90059 3.27249C7.57651 3.40788 7.28253 3.60626 7.03569 3.85611C6.78885 4.10597 6.59405 4.40234 6.4626 4.72803C6.33115 5.05373 6.26566 5.40229 6.26992 5.75349V13.1683C6.26277 13.6628 6.35397 14.1537 6.53823 14.6126C6.7225 15.0714 6.99614 15.4891 7.34326 15.8413C7.69037 16.1935 8.10403 16.4731 8.56019 16.664C9.01635 16.8549 9.5059 16.9532 10.0004 16.9532C10.4949 16.9532 10.9844 16.8549 11.4406 16.664C11.8967 16.4731 12.3104 16.1935 12.6575 15.8413C13.0046 15.4891 13.2783 15.0714 13.4625 14.6126C13.6468 14.1537 13.738 13.6628 13.7309 13.1683V6.23942" stroke="#7D7D7D" stroke-miterlimit="10" stroke-linecap="round"/>
</svg>
