<svg width="18" height="16" viewBox="0 0 18 16" fill="none" xmlns="http://www.w3.org/2000/svg">
<path d="M9.21813 2.63983C9.49524 2.35074 9.75381 2.04683 10.0476 1.77998C11.6343 0.337336 13.7668 0.0510305 15.423 1.04708C17.1292 2.0737 17.9874 4.23257 17.4795 6.27655C17.0189 8.13244 15.8984 9.59733 14.6334 10.9658C13.0865 12.6392 11.2997 14.0355 9.46187 15.3688C9.34695 15.4522 9.0893 15.4939 8.99384 15.4244C6.46926 13.5861 4.01142 11.6691 2.20325 9.06826C1.39323 7.90451 0.779697 6.6481 0.750967 5.18878C0.712968 3.26525 1.79824 1.5048 3.43217 0.799687C5.07166 0.0917989 7.05222 0.525427 8.45352 1.89858C8.69356 2.13393 8.93638 2.36649 9.21813 2.63983Z" fill="#FE0135"/>
</svg>
