<svg width="32" height="32" viewBox="0 0 32 32" fill="none" xmlns="http://www.w3.org/2000/svg">
<path d="M7.10526 3H24.8947C25.9835 3 27.0277 3.43252 27.7976 4.2024C28.5675 4.97229 29 6.01648 29 7.10526V24.8947C29 25.9835 28.5675 27.0277 27.7976 27.7976C27.0277 28.5675 25.9835 29 24.8947 29H7.10526C6.01648 29 4.97229 28.5675 4.2024 27.7976C3.43252 27.0277 3 25.9835 3 24.8947V7.10526C3 6.01648 3.43252 4.97229 4.2024 4.2024C4.97229 3.43252 6.01648 3 7.10526 3ZM7.10526 4.36842C6.37941 4.36842 5.68328 4.65677 5.17002 5.17002C4.65677 5.68328 4.36842 6.37941 4.36842 7.10526V22.9653L9.53184 17.7898C9.92223 17.3985 10.556 17.3981 10.9469 17.789L11.9495 18.7916L13.66 20.5021L19.795 14.3671C20.1855 13.9766 20.8187 13.9766 21.2092 14.3671L27.6316 20.7895V7.10526C27.6316 6.37941 27.3432 5.68328 26.83 5.17002C26.3167 4.65677 25.6206 4.36842 24.8947 4.36842H7.10526ZM14.3671 21.7382C13.9766 22.1287 13.3434 22.1287 12.9529 21.7382L10.2389 19.0242L4.36842 24.8947C4.36842 25.6206 4.65677 26.3167 5.17002 26.83C5.68328 27.3432 6.37941 27.6316 7.10526 27.6316H24.8947C25.6206 27.6316 26.3167 27.3432 26.83 26.83C27.3432 26.3167 27.6316 25.6206 27.6316 24.8947V22.7189L20.5021 15.6032L14.3671 21.7382ZM10.5263 7.10526C11.4336 7.10526 12.3038 7.46569 12.9454 8.10727C13.5869 8.74884 13.9474 9.619 13.9474 10.5263C13.9474 11.4336 13.5869 12.3038 12.9454 12.9454C12.3038 13.5869 11.4336 13.9474 10.5263 13.9474C9.619 13.9474 8.74884 13.5869 8.10727 12.9454C7.46569 12.3038 7.10526 11.4336 7.10526 10.5263C7.10526 9.619 7.46569 8.74884 8.10727 8.10727C8.74884 7.46569 9.619 7.10526 10.5263 7.10526ZM10.5263 8.47368C9.98192 8.47368 9.45983 8.68994 9.07489 9.07489C8.68994 9.45983 8.47368 9.98192 8.47368 10.5263C8.47368 11.0707 8.68994 11.5928 9.07489 11.9777C9.45983 12.3627 9.98192 12.5789 10.5263 12.5789C11.0707 12.5789 11.5928 12.3627 11.9777 11.9777C12.3627 11.5928 12.5789 11.0707 12.5789 10.5263C12.5789 9.98192 12.3627 9.45983 11.9777 9.07489C11.5928 8.68994 11.0707 8.47368 10.5263 8.47368Z" fill="#444545"/>
</svg>
