<svg width="24" height="24" viewBox="0 0 24 24" fill="none" xmlns="http://www.w3.org/2000/svg">
<path d="M12 2.25C10.3167 2.24963 8.66195 2.68508 7.19685 3.51396C5.73176 4.34285 4.50622 5.53692 3.63953 6.97997C2.77283 8.42301 2.29451 10.0659 2.25111 11.7486C2.20771 13.4314 2.60071 15.0967 3.39187 16.5825L2.3278 19.7747C2.23967 20.039 2.22687 20.3226 2.29086 20.5938C2.35486 20.8649 2.4931 21.1129 2.6901 21.3099C2.88711 21.5069 3.13508 21.6451 3.40624 21.7091C3.67739 21.7731 3.96101 21.7603 4.2253 21.6722L7.41749 20.6081C8.72509 21.3036 10.1739 21.6921 11.6541 21.744C13.1342 21.7959 14.6067 21.51 15.9599 20.9079C17.313 20.3057 18.5112 19.4033 19.4634 18.269C20.4157 17.1346 21.097 15.7983 21.4557 14.3613C21.8144 12.9244 21.841 11.4246 21.5336 9.97578C21.2261 8.52701 20.5926 7.16732 19.6811 5.99992C18.7697 4.83253 17.6043 3.88811 16.2734 3.23836C14.9425 2.58861 13.481 2.25061 12 2.25ZM7.87499 13.125C7.65249 13.125 7.43498 13.059 7.24998 12.9354C7.06497 12.8118 6.92078 12.6361 6.83563 12.4305C6.75048 12.225 6.7282 11.9988 6.77161 11.7805C6.81502 11.5623 6.92216 11.3618 7.0795 11.2045C7.23683 11.0472 7.43729 10.94 7.65552 10.8966C7.87374 10.8532 8.09994 10.8755 8.30551 10.9606C8.51108 11.0458 8.68678 11.19 8.8104 11.375C8.93401 11.56 8.99999 11.7775 8.99999 12C8.99999 12.2984 8.88147 12.5845 8.67049 12.7955C8.45951 13.0065 8.17336 13.125 7.87499 13.125ZM12 13.125C11.7775 13.125 11.56 13.059 11.375 12.9354C11.19 12.8118 11.0458 12.6361 10.9606 12.4305C10.8755 12.225 10.8532 11.9988 10.8966 11.7805C10.94 11.5623 11.0472 11.3618 11.2045 11.2045C11.3618 11.0472 11.5623 10.94 11.7805 10.8966C11.9987 10.8532 12.2249 10.8755 12.4305 10.9606C12.6361 11.0458 12.8118 11.19 12.9354 11.375C13.059 11.56 13.125 11.7775 13.125 12C13.125 12.2984 13.0065 12.5845 12.7955 12.7955C12.5845 13.0065 12.2984 13.125 12 13.125ZM16.125 13.125C15.9025 13.125 15.685 13.059 15.5 12.9354C15.315 12.8118 15.1708 12.6361 15.0856 12.4305C15.0005 12.225 14.9782 11.9988 15.0216 11.7805C15.065 11.5623 15.1722 11.3618 15.3295 11.2045C15.4868 11.0472 15.6873 10.94 15.9055 10.8966C16.1237 10.8532 16.3499 10.8755 16.5555 10.9606C16.7611 11.0458 16.9368 11.19 17.0604 11.375C17.184 11.56 17.25 11.7775 17.25 12C17.25 12.2984 17.1315 12.5845 16.9205 12.7955C16.7095 13.0065 16.4234 13.125 16.125 13.125Z" fill="white"/>
</svg>
