<svg width="24" height="24" viewBox="0 0 24 24" fill="none" xmlns="http://www.w3.org/2000/svg">
<path d="M3 9V15C3 17.828 3 19.243 3.879 20.121C4.757 21 6.172 21 9 21H15C17.828 21 19.243 21 20.121 20.121C21 19.243 21 17.828 21 15V9C21 6.172 21 4.757 20.121 3.879C19.243 3 17.828 3 15 3H9" stroke="#0CC24C" stroke-linecap="round"/>
<path d="M15.0001 15V15.5H15.5001V15H15.0001ZM7.35414 6.64601C7.30766 6.59952 7.25247 6.56264 7.19173 6.53748C7.13099 6.51232 7.06589 6.49937 7.00014 6.49937C6.9344 6.49937 6.8693 6.51232 6.80856 6.53748C6.74782 6.56264 6.69263 6.59952 6.64614 6.64601C6.59966 6.69249 6.56278 6.74768 6.53762 6.80842C6.51246 6.86916 6.49951 6.93426 6.49951 7.00001C6.49951 7.06575 6.51246 7.13085 6.53762 7.19159C6.56278 7.25233 6.59966 7.30752 6.64614 7.35401L7.35414 6.64601ZM14.5001 8.00001V15H15.5001V8.00001H14.5001ZM15.0001 14.5H8.00014V15.5H15.0001V14.5ZM15.3541 14.646L7.35414 6.64601L6.64614 7.35401L14.6461 15.354L15.3541 14.646Z" fill="#0CC24C"/>
</svg>
