<svg width="18" height="18" viewBox="0 0 18 18" fill="none" xmlns="http://www.w3.org/2000/svg">
<path d="M9.00039 8.6C8.46996 8.6 7.96125 8.38929 7.58618 8.01421C7.2111 7.63914 7.00039 7.13043 7.00039 6.6C7.00039 6.06957 7.2111 5.56086 7.58618 5.18579C7.96125 4.81071 8.46996 4.6 9.00039 4.6C9.53082 4.6 10.0395 4.81071 10.4146 5.18579C10.7897 5.56086 11.0004 6.06957 11.0004 6.6C11.0004 6.86264 10.9487 7.12272 10.8482 7.36537C10.7476 7.60802 10.6003 7.8285 10.4146 8.01421C10.2289 8.19993 10.0084 8.34725 9.76576 8.44776C9.52311 8.54827 9.26303 8.6 9.00039 8.6ZM9.00039 1C7.51518 1 6.0908 1.59 5.04059 2.6402C3.99039 3.69041 3.40039 5.11479 3.40039 6.6C3.40039 10.3027 7.75287 15.5599 8.78349 16.7529C8.89967 16.8874 9.10111 16.8874 9.21729 16.7529C10.2479 15.5599 14.6004 10.3027 14.6004 6.6C14.6004 5.11479 14.0104 3.69041 12.9602 2.6402C11.91 1.59 10.4856 1 9.00039 1Z" fill="#0CC24C"/>
</svg>
