<svg width="20" height="20" viewBox="0 0 20 20" fill="none" xmlns="http://www.w3.org/2000/svg">
<path d="M16.0245 12.7166L13.9079 12.475C13.659 12.4457 13.4067 12.4733 13.17 12.5556C12.9333 12.6378 12.7183 12.7727 12.5412 12.95L11.0079 14.4833C8.64237 13.2799 6.7196 11.3571 5.51621 8.99164L7.05788 7.44997C7.41621 7.09164 7.59121 6.59164 7.53288 6.0833L7.29121 3.9833C7.24414 3.57671 7.0491 3.20166 6.74326 2.92963C6.43743 2.65761 6.04219 2.50763 5.63288 2.5083H4.19121C3.24955 2.5083 2.46621 3.29164 2.52455 4.2333C2.96621 11.35 8.65788 17.0333 15.7662 17.475C16.7079 17.5333 17.4912 16.75 17.4912 15.8083V14.3666C17.4995 13.525 16.8662 12.8166 16.0245 12.7166Z" fill="black"/>
</svg>
