<svg width="24" height="24" viewBox="0 0 24 24" fill="none" xmlns="http://www.w3.org/2000/svg">
<path d="M12 17C12.2833 17 12.521 16.9043 12.713 16.713C12.905 16.5217 13.0007 16.284 13 16V12C13 11.7167 12.904 11.479 12.712 11.287C12.52 11.095 12.2827 10.9993 12 11C11.7167 11 11.479 11.096 11.287 11.288C11.095 11.48 10.9993 11.7173 11 12V16C11 16.2833 11.096 16.521 11.288 16.713C11.48 16.905 11.7173 17.0007 12 17ZM12 9C12.2833 9 12.521 8.90434 12.713 8.713C12.905 8.52167 13.0007 8.284 13 8C13 7.71667 12.904 7.479 12.712 7.287C12.52 7.095 12.2827 6.99934 12 7C11.7167 7 11.479 7.096 11.287 7.288C11.095 7.48 10.9993 7.71734 11 8C11 8.28334 11.096 8.521 11.288 8.713C11.48 8.905 11.7173 9.00067 12 9Z" fill="#0CC24C"/>
<circle cx="12" cy="12" r="9.4" stroke="#0CC24C" stroke-width="1.2"/>
</svg>
