<svg width="20" height="20" viewBox="0 0 20 20" fill="none" xmlns="http://www.w3.org/2000/svg">
<path d="M10 1.25C12.3208 1.25 14.5466 2.17194 16.1876 3.813C17.8287 5.45406 18.7506 7.67981 18.7506 10.0006C18.7506 12.3214 17.8287 14.5472 16.1876 16.1883C14.5466 17.8293 12.3208 18.7513 10 18.7513C7.6792 18.7513 5.45345 17.8293 3.81239 16.1883C2.17133 14.5472 1.24939 12.3214 1.24939 10.0006C1.24939 7.67981 2.17133 5.45406 3.81239 3.813C5.45345 2.17194 7.6792 1.25 10 1.25ZM11.3125 6.6225C11.9625 6.6225 12.49 6.17125 12.49 5.5025C12.49 4.83375 11.9613 4.3825 11.3125 4.3825C10.6625 4.3825 10.1375 4.83375 10.1375 5.5025C10.1375 6.17125 10.6625 6.6225 11.3125 6.6225ZM11.5413 13.6562C11.5413 13.5225 11.5875 13.175 11.5613 12.9775L10.5338 14.16C10.3213 14.3837 10.055 14.5387 9.93001 14.4975C9.8733 14.4766 9.8259 14.4362 9.79634 14.3835C9.76678 14.3308 9.757 14.2693 9.76876 14.21L11.4813 8.8C11.6213 8.11375 11.2363 7.4875 10.42 7.4075C9.55877 7.4075 8.29126 8.28125 7.52001 9.39C7.52001 9.5225 7.49502 9.8525 7.52127 10.05L8.54751 8.86625C8.76001 8.645 9.00751 8.48875 9.13251 8.53125C9.1941 8.55335 9.24456 8.59872 9.27308 8.65762C9.30159 8.71651 9.30587 8.78423 9.28502 8.84625L7.58751 14.23C7.39126 14.86 7.76251 15.4775 8.66251 15.6175C9.98751 15.6175 10.77 14.765 11.5425 13.6562H11.5413Z" fill="#0CC24C"/>
</svg>
