<svg width="21" height="20" viewBox="0 0 21 20" fill="none" xmlns="http://www.w3.org/2000/svg">
<g clip-path="url(#clip0_310_778)">
<path d="M14.7508 8.75003H19.6658C19.7252 8.75005 19.7834 8.76699 19.8335 8.79887C19.8836 8.83074 19.9235 8.87623 19.9487 8.93C19.9739 8.98378 19.9833 9.04361 19.9757 9.1025C19.9681 9.1614 19.9438 9.2169 19.9058 9.26253L17.4483 12.2125C17.419 12.2477 17.3823 12.276 17.3408 12.2954C17.2994 12.3148 17.2541 12.3249 17.2083 12.3249C17.1625 12.3249 17.1173 12.3148 17.0758 12.2954C17.0344 12.276 16.9977 12.2477 16.9683 12.2125L14.5108 9.26253C14.4728 9.2169 14.4486 9.1614 14.441 9.1025C14.4334 9.04361 14.4428 8.98378 14.468 8.93C14.4931 8.87623 14.5331 8.83074 14.5832 8.79887C14.6333 8.76699 14.6915 8.75005 14.7508 8.75003ZM1.00084 11.25H5.91584C5.97522 11.25 6.03337 11.2331 6.08347 11.2012C6.13357 11.1693 6.17355 11.1238 6.19873 11.0701C6.22392 11.0163 6.23326 10.9564 6.22566 10.8976C6.21806 10.8387 6.19385 10.7832 6.15584 10.7375L3.69834 7.78753C3.66902 7.75236 3.63232 7.72407 3.59084 7.70465C3.54937 7.68524 3.50414 7.67517 3.45834 7.67517C3.41255 7.67517 3.36732 7.68524 3.32584 7.70465C3.28437 7.72407 3.24767 7.75236 3.21834 7.78753L0.760844 10.7375C0.722841 10.7832 0.698624 10.8387 0.691029 10.8976C0.683433 10.9564 0.692773 11.0163 0.717956 11.0701C0.743138 11.1238 0.783121 11.1693 0.833221 11.2012C0.883321 11.2331 0.941465 11.25 1.00084 11.25Z" fill="#272828"/>
<path fill-rule="evenodd" clip-rule="evenodd" d="M10.3333 3.75005C8.39335 3.75005 6.65835 4.6338 5.5121 6.02255C5.46091 6.08889 5.39691 6.14426 5.3239 6.18537C5.25088 6.22648 5.17035 6.25249 5.08708 6.26185C5.00382 6.27121 4.91952 6.26374 4.8392 6.23987C4.75888 6.216 4.68418 6.17622 4.61954 6.1229C4.55491 6.06958 4.50165 6.00381 4.46294 5.92949C4.42423 5.85518 4.40086 5.77384 4.39422 5.69031C4.38758 5.60678 4.3978 5.52277 4.42428 5.44327C4.45075 5.36377 4.49295 5.29041 4.54835 5.22755C5.46358 4.11946 6.67783 3.29756 8.04668 2.85962C9.41552 2.42167 10.8813 2.38611 12.2698 2.75716C13.6583 3.12821 14.911 3.89025 15.8789 4.95266C16.8468 6.01506 17.4891 7.33311 17.7296 8.75005H16.4583C16.1702 7.33834 15.4031 6.06955 14.287 5.15841C13.1708 4.24728 11.7742 3.74975 10.3333 3.75005ZM4.20835 11.25C4.44498 12.4058 5.00379 13.4711 5.82019 14.3227C6.6366 15.1744 7.6773 15.7777 8.82205 16.0629C9.9668 16.3481 11.1689 16.3037 12.2895 15.9347C13.41 15.5657 14.4033 14.8872 15.1546 13.9775C15.2058 13.9112 15.2698 13.8558 15.3428 13.8147C15.4158 13.7736 15.4963 13.7476 15.5796 13.7382C15.6629 13.7289 15.7472 13.7364 15.8275 13.7602C15.9078 13.7841 15.9825 13.8239 16.0471 13.8772C16.1118 13.9305 16.165 13.9963 16.2038 14.0706C16.2425 14.1449 16.2658 14.2263 16.2725 14.3098C16.2791 14.3933 16.2689 14.4773 16.2424 14.5568C16.2159 14.6363 16.1737 14.7097 16.1183 14.7725C15.2031 15.8806 13.9889 16.7025 12.62 17.1405C11.2512 17.5784 9.78535 17.614 8.39688 17.2429C7.00841 16.8719 5.75573 16.1098 4.78783 15.0474C3.81994 13.985 3.17756 12.667 2.9371 11.25H4.20835Z" fill="#272828"/>
</g>
<defs>
<clipPath id="clip0_310_778">
<rect width="20" height="20" fill="white" transform="translate(0.333344)"/>
</clipPath>
</defs>
</svg>
