<svg width="56" height="39" viewBox="0 0 56 39" fill="none" xmlns="http://www.w3.org/2000/svg">
<rect width="56" height="39" rx="19.5" fill="#0CC24C"/>
<g clip-path="url(#clip0_77_107)">
<path d="M36.2346 13.1861C36.6666 11.9911 35.5086 10.8331 34.3136 11.2661L19.7086 16.5481C18.5096 16.9821 18.3646 18.6181 19.4676 19.2571L24.1296 21.9561L28.2926 17.7931C28.4812 17.6109 28.7338 17.5101 28.996 17.5124C29.2582 17.5147 29.509 17.6199 29.6944 17.8053C29.8798 17.9907 29.9849 18.2415 29.9872 18.5037C29.9895 18.7659 29.8887 19.0185 29.7066 19.2071L25.5436 23.3701L28.2436 28.0321C28.8816 29.1351 30.5176 28.9891 30.9516 27.7911L36.2346 13.1861Z" fill="white"/>
</g>
<defs>
<clipPath id="clip0_77_107">
<rect width="24" height="24" fill="white" transform="translate(16 7.5)"/>
</clipPath>
</defs>
</svg>
