<svg width="25" height="24" viewBox="0 0 25 24" fill="none" xmlns="http://www.w3.org/2000/svg">
<path fill-rule="evenodd" clip-rule="evenodd" d="M11.8413 16.6888L7.81962 12.6671C8.26187 11.9272 8.70267 11.1615 9.13919 10.4001C10.5933 7.87258 12.013 5.40519 13.3441 4.1214C16.9564 0.509048 21.9041 2.60433 21.9041 2.60433C21.9041 2.60433 23.9979 7.55199 20.387 11.1643C19.1132 12.4839 16.6845 13.8836 14.1756 15.3263C13.3942 15.7771 12.6056 16.2308 11.8413 16.6888ZM14.9041 7.34017C14.9041 6.73968 15.1426 6.16378 15.5672 5.73917C15.9918 5.31456 16.5677 5.07601 17.1682 5.07601C17.7687 5.07601 18.3446 5.31456 18.7692 5.73917C19.1938 6.16378 19.4324 6.73968 19.4324 7.34017C19.4175 7.93062 19.1726 8.4919 18.7497 8.90426C18.3268 9.31662 17.7596 9.54741 17.1689 9.54741C16.5783 9.54741 16.0111 9.31662 15.5882 8.90426C15.1653 8.4919 14.9189 7.93062 14.9041 7.34017ZM9.05046 7.00814C7.02101 6.46857 5.11608 7.46755 3.42583 9.01754C3.34789 9.09097 3.28819 9.1816 3.2515 9.28221C3.21481 9.38281 3.20214 9.4906 3.21452 9.59697C3.22689 9.70334 3.26396 9.80534 3.32277 9.89484C3.38158 9.98433 3.46049 10.0588 3.55321 10.1124L6.27965 11.7554L6.28251 11.7497C6.67609 11.0914 7.11547 10.3285 7.56201 9.55567C8.07008 8.67262 8.58675 7.77669 9.05046 7.00814ZM12.753 18.2288L14.396 20.9552C14.4497 21.0478 14.5243 21.1266 14.6139 21.1853C14.7034 21.2439 14.8054 21.2809 14.9118 21.2931C15.0182 21.3053 15.1259 21.2925 15.2265 21.2557C15.327 21.2189 15.4175 21.1592 15.4909 21.0811C17.0409 19.3923 18.0413 17.486 17.5003 15.4565C16.7532 15.9059 15.9689 16.3582 15.1917 16.8061L15.073 16.8748C14.2887 17.3271 13.5115 17.7736 12.7601 18.2245L12.753 18.2288ZM6.22383 15.3721C6.80228 15.3618 7.37026 15.5271 7.8529 15.8461C8.33554 16.1651 8.71018 16.6229 8.92745 17.1591C9.14471 17.6953 9.1944 18.2847 9.06996 18.8497C8.94553 19.4147 8.6528 19.9287 8.23038 20.324C7.91265 20.6275 7.41603 20.865 6.95661 21.0482C6.44119 21.2465 5.91568 21.4175 5.38229 21.5606C4.85704 21.7037 4.35612 21.8182 3.97685 21.8941C3.81739 21.9268 3.65703 21.9549 3.49596 21.9785L3.30561 21.9971C3.21 22.0057 3.11363 21.995 3.02224 21.9656C2.88791 21.9265 2.76799 21.8489 2.67732 21.7424C2.59944 21.6521 2.54532 21.5439 2.51988 21.4275C2.50178 21.3448 2.49599 21.26 2.50271 21.1756C2.507 21.1184 2.51559 21.0525 2.52418 20.9924C2.54278 20.8665 2.57141 20.7019 2.61005 20.5144C2.6859 20.1365 2.80326 19.6385 2.94638 19.1161C3.0895 18.5951 3.26411 18.037 3.46018 17.5489C3.64338 17.0895 3.88096 16.5943 4.18437 16.278C4.44633 15.9981 4.76184 15.7737 5.11218 15.6181C5.46252 15.4625 5.84055 15.3788 6.22383 15.3721Z" fill="#C2C3C3"/>
</svg>
