<svg width="18" height="18" viewBox="0 0 18 18" fill="none" xmlns="http://www.w3.org/2000/svg">
<path fill-rule="evenodd" clip-rule="evenodd" d="M6.73776 1.31615C5.19163 1.76654 3.81713 2.67247 2.7936 3.91575C1.77007 5.15903 1.14502 6.68194 1 8.28579H4.65681C4.86997 5.84516 5.5776 3.47343 6.73662 1.31501L6.73776 1.31615ZM4.65681 9.71423H1C1.14472 11.3181 1.7695 12.8412 2.79283 14.0847C3.81616 15.3282 5.19053 16.2344 6.73662 16.685C5.5776 14.5266 4.86997 12.1549 4.65681 9.71423ZM8.56959 16.9901C7.18409 14.7927 6.33465 12.3004 6.08982 9.71423H11.8436C11.5987 12.3004 10.7493 14.7927 9.3638 16.9901C9.09923 17.0033 8.83416 17.0033 8.56959 16.9901ZM11.1979 16.6839C12.7438 16.2333 14.1181 15.3273 15.1414 14.084C16.1647 12.8407 16.7896 11.3179 16.9345 9.71423H13.2777C13.0646 12.1549 12.3569 14.5266 11.1979 16.685V16.6839ZM13.2777 8.28579H16.9345C16.7898 6.68188 16.165 5.15883 15.1417 3.91534C14.1184 2.67184 12.744 1.76566 11.1979 1.31501C12.3569 3.47343 13.0646 5.84516 13.2777 8.28579ZM8.56959 1.00989C8.83454 0.996703 9.09999 0.996703 9.36495 1.00989C10.75 3.20738 11.5991 5.69974 11.8436 8.28579H6.09096C6.33894 5.68375 7.19029 3.18912 8.56959 1.00989Z" fill="#0CC24C"/>
</svg>
