<svg width="17" height="12" viewBox="0 0 17 12" fill="none" xmlns="http://www.w3.org/2000/svg">
<path d="M0.334751 4.37689C0.549156 4.16255 0.839913 4.04214 1.14308 4.04214C1.44625 4.04214 1.73701 4.16255 1.95141 4.37689L5.99422 8.41969L14.0775 0.335226C14.1837 0.229 14.3097 0.144721 14.4484 0.0872031C14.5872 0.0296848 14.7359 5.31575e-05 14.886 7.14557e-08C15.0362 -5.30146e-05 15.1849 0.0294735 15.3237 0.0868937C15.4625 0.144314 15.5885 0.228503 15.6948 0.334655C15.801 0.440806 15.8853 0.566842 15.9428 0.705564C16.0003 0.844287 16.0299 0.99298 16.03 1.14315C16.0301 1.29333 16.0005 1.44204 15.9431 1.58081C15.8857 1.71957 15.8015 1.84566 15.6953 1.95189L6.70133 10.9459C6.3108 11.3364 5.67764 11.3364 5.28711 10.9459L0.334751 5.99355C0.12041 5.77914 0 5.48839 0 5.18522C0 4.88205 0.12041 4.59129 0.334751 4.37689Z" fill="#0CC24C"/>
</svg>
