<svg width="500" height="482" viewBox="0 0 500 482" fill="none" xmlns="http://www.w3.org/2000/svg">
<path d="M478.773 283.404L478.624 283.478C461.074 296.937 453.638 319.84 459.885 341.034L459.959 341.183C469.923 374.869 445.236 408.851 410.136 409.744H409.988C387.828 410.339 368.345 424.467 360.983 445.363V445.437C349.233 478.602 309.228 491.615 280.301 471.611C262.339 459.346 238.594 458.706 219.696 471.611H219.622C190.696 491.54 150.689 478.601 139.014 445.362C131.586 424.414 112.132 410.337 90.01 409.743H89.861C54.763 408.85 30.074 374.868 40.039 341.182L40.113 341.033C46.358 319.839 38.922 296.936 21.374 283.477L21.225 283.403C-6.66095 261.986 -6.66095 220.047 21.225 198.631L21.374 198.557C38.922 185.098 46.358 162.194 40.039 141.001V140.852C29.999 107.167 54.762 73.183 89.861 72.291H90.01C112.095 71.696 131.652 57.567 139.014 36.672V36.598C150.688 3.43299 190.696 -9.58001 219.622 10.424H219.696C237.914 22.991 262.007 22.991 280.301 10.424C309.519 -9.75301 349.302 3.63199 360.983 36.598V36.672C368.345 57.493 387.827 71.697 409.988 72.291H410.136C445.235 73.183 469.923 107.167 459.959 140.852L459.885 141.001C453.638 162.194 461.074 185.098 478.624 198.557L478.773 198.631C506.659 220.047 506.659 261.987 478.773 283.404Z" fill="#3EB655"/>
<path d="M250 379.517C326.501 379.517 388.517 317.501 388.517 241C388.517 164.499 326.501 102.483 250 102.483C173.499 102.483 111.483 164.499 111.483 241C111.483 317.501 173.499 379.517 250 379.517Z" fill="#8BD399"/>
<path opacity="0.1" d="M356.355 152.333C332.396 132.623 301.743 120.776 268.327 120.776C191.827 120.776 129.777 182.826 129.777 259.326C129.777 292.742 141.624 323.395 161.333 347.354C130.892 321.961 111.502 283.764 111.502 240.998C111.502 164.497 173.499 102.501 249.999 102.501C292.765 102.501 330.962 121.891 356.355 152.333Z" fill="black"/>
<path d="M217.045 295.226L186.414 262.638C178.392 254.102 178.806 240.681 187.339 232.659C195.872 224.627 209.299 225.058 217.314 233.588L231.936 249.138L294.089 178.1C301.793 169.284 315.193 168.39 324.016 176.105C332.832 183.82 333.722 197.216 326.011 206.032L248.456 294.667C240.194 304.1 225.613 304.347 217.045 295.226Z" fill="white"/>
</svg>
