<svg width="20" height="20" viewBox="0 0 20 20" fill="none" xmlns="http://www.w3.org/2000/svg">
<path d="M9.57784 5.26844L9.99967 5.93131L10.4215 5.26844C11.2043 4.0384 12.5864 3.25 14.1663 3.25C16.6402 3.25 18.6663 5.27614 18.6663 7.75C18.6663 8.84956 18.1597 9.99594 17.3308 11.1262C16.5058 12.2513 15.3948 13.3147 14.2664 14.238C13.1404 15.1593 12.0119 15.9289 11.1635 16.4688C10.7398 16.7384 10.3872 16.95 10.1413 17.0937C10.0895 17.1239 10.0426 17.1512 10.0006 17.1753C9.95856 17.1509 9.91138 17.1234 9.85943 17.0928C9.61343 16.948 9.26073 16.7349 8.83696 16.4637C7.98843 15.9205 6.85971 15.1468 5.73349 14.2228C4.60478 13.2968 3.49353 12.2318 2.66827 11.1083C1.83891 9.97923 1.33301 8.83832 1.33301 7.75C1.33301 5.27614 3.35915 3.25 5.83301 3.25C7.41294 3.25 8.79509 4.0384 9.57784 5.26844Z" stroke="#272828"/>
</svg>
